<?xml version="1.0" encoding="UTF-8"?>
<svg id="Layer_1" data-name="Layer 1" xmlns="http://www.w3.org/2000/svg" xmlns:xlink="http://www.w3.org/1999/xlink" viewBox="0 0 864 255.5">
  <defs>
    <style>
      .cls-1 {
        fill: #02add8;
      }

      .cls-2 {
        fill: #fff;
      }
    </style>
  </defs>
  <path id="fullLogo" class="cls-2" d="m74.43,169.59c-22.22,0-38.61-15.85-38.61-39.2s16.38-39.2,38.61-39.2,38.33,15.85,38.33,39.2-16.39,39.2-38.33,39.2m38.33-108.71v16.4c-10-12.79-24.72-20.3-44.99-20.3C30.55,56.99,0,88.97,0,130.39s30.55,73.4,67.77,73.4c20.27,0,34.99-7.5,44.99-20.29v72.01h.7c19.4,0,35.13-15.75,35.13-35.17V60.89h-35.83Z"/>
  <a xlink:href="83.0858823529412">
    <path id="fullLogo-2" data-name="fullLogo" class="cls-2" d="m270.23,60.89v75.07c0,24.19-13.05,34.48-30.55,34.48-16.11,0-27.5-9.73-27.5-28.64v-48.15c0-18.09-14.65-32.75-32.72-32.75h-3.11v85.35c0,36.98,23.05,57.55,52.49,57.55,18.61,0,33.05-6.95,41.38-19.46v15.57h35.83v-104.54c0-19.03-15.42-34.47-34.43-34.47h-1.4Z"/>
  </a>
  <a xlink:href="83.0858823529412">
    <path id="fullLogo-3" data-name="fullLogo" class="cls-2" d="m356.61,44.2c12.22,0,22.22-10.01,22.22-21.97S368.83,0,356.61,0s-21.94,10.29-21.94,22.24,10,21.97,21.94,21.97"/>
  </a>
  <a xlink:href="83.0858823529412">
    <path id="fullLogo-4" data-name="fullLogo" class="cls-2" d="m374.66,202.99h0v.8c-19.79,0-35.83-16.04-35.83-35.83V60.89c19.79,0,35.83,16.04,35.83,35.83v106.27Z"/>
  </a>
  <path id="fullLogo-5" data-name="fullLogo" class="cls-2" d="m481.59,169.59c-21.95,0-38.33-15.85-38.33-39.2s16.39-39.2,38.33-39.2,38.61,15.85,38.61,39.2-16.39,39.2-38.61,39.2m6.66-112.6c-20.27,0-34.99,7.51-45,20.3v-16.4h-35.83v194.61h.87c19.31,0,34.96-15.67,34.96-35v-37.01c10,12.79,24.72,20.3,45,20.3,37.22,0,67.77-31.97,67.77-73.4s-30.55-73.4-67.77-73.4"/>
  <a xlink:href="39.0435294117647">
    <path id="fullLogo-6" data-name="fullLogo" class="cls-2" d="m735.73,180.72l-.26.37c-.09-.13.04-.25.26-.37"/>
  </a>
  <a xlink:href="83.0858823529412">
    <path id="fullLogo-7" data-name="fullLogo" class="cls-2" d="m797.5,167.26l13.5,18.85c6.2,8.65,16.18,13.79,26.81,13.79h24.45l-44.18-61.63-20.58,28.99Z"/>
  </a>
  <path id="fullLogo-8" data-name="fullLogo" class="cls-2" d="m611.02,117.32c4.17-17.79,17.22-28.08,36.38-28.08,15,0,30,8.06,34.44,28.08h-70.83Zm106.65,13.07c0-40.87-29.16-73.4-70.27-73.4-43.6,0-73.32,31.97-73.32,73.4s29.44,73.4,76.1,73.4c21.99,0,39.99-7.39,52.95-20.57l-5.7-8.03c-6.32-8.9-18.12-12.51-28.03-7.94-.07.03-.13.06-.2.09-5.28,2.47-11.53,3.93-18.47,3.93-18.89,0-34.16-7.78-39.16-26.14h104.71c.84-4.73,1.39-9.45,1.39-14.73"/>
  <a xlink:href="50.4023529411765">
    <path id="fullLogo-9" data-name="fullLogo" class="cls-1" d="m864,57.8c-52.21,16.63-121.65,112.75-121.65,112.75,0,0-11.25-19.04-45.5-11.24,6.51,8.05,18.09,21.52,27.58,32.45,10.65,12.26,29.66,13.71,41.28,2.36.96-.93,1.8-1.88,2.5-2.85l4.23-5.95c.38-.45.77-.93,1.15-1.47,0,0,3.58-2.96,90.4-126.04"/>
  </a>
  <a xlink:href="83.0858823529412">
    <path id="fullLogo-10" data-name="fullLogo" class="cls-2" d="m791.05,99.84l-17.52-24.91c-6.3-8.82-16.47-14.04-27.31-14.04h-24.12l45.42,64.33c7.11-8.16,15.06-16.85,23.53-25.37"/>
  </a>
  <a xlink:href="83.0858823529412">
    <path id="fullLogo-11" data-name="fullLogo" class="cls-2" d="m797.04,167.01l3.8,5.38,17.25-34.12-.19-.27c-8.26,11.57-15.21,21.24-20.86,29.01"/>
  </a>
</svg>